<svg width="24" height="24" viewBox="0 0 24 24" fill="none" xmlns="http://www.w3.org/2000/svg">
<g id="ph:file-light">
<path id="Vector" d="M19.8975 7.8525L14.6475 2.6025C14.5421 2.49698 14.3991 2.43763 14.25 2.4375H5.25C4.9019 2.4375 4.56806 2.57578 4.32192 2.82192C4.07578 3.06806 3.9375 3.4019 3.9375 3.75V20.25C3.9375 20.5981 4.07578 20.9319 4.32192 21.1781C4.56806 21.4242 4.9019 21.5625 5.25 21.5625H18.75C19.0981 21.5625 19.4319 21.4242 19.6781 21.1781C19.9242 20.9319 20.0625 20.5981 20.0625 20.25V8.25C20.0624 8.10087 20.003 7.95789 19.8975 7.8525ZM14.8125 4.3575L18.1425 7.6875H14.8125V4.3575ZM18.75 20.4375H5.25C5.20027 20.4375 5.15258 20.4177 5.11742 20.3826C5.08225 20.3474 5.0625 20.2997 5.0625 20.25V3.75C5.0625 3.70027 5.08225 3.65258 5.11742 3.61742C5.15258 3.58225 5.20027 3.5625 5.25 3.5625H13.6875V8.25C13.6875 8.39918 13.7468 8.54226 13.8523 8.64775C13.9577 8.75324 14.1008 8.8125 14.25 8.8125H18.9375V20.25C18.9375 20.2997 18.9177 20.3474 18.8826 20.3826C18.8474 20.4177 18.7997 20.4375 18.75 20.4375Z" fill="#CACACA"/>
</g>
</svg>
