<svg width="240" height="294" viewBox="0 0 240 294" fill="none" xmlns="http://www.w3.org/2000/svg">
<g clip-path="url(#clip0_2318_18)">
<path d="M74.8774 0H240V155.752C230.537 150.626 221.037 145.57 211.579 140.434C211.605 126.121 211.585 111.808 211.592 97.4957C211.559 85.9956 211.657 74.493 211.543 62.9981C197.59 55.5949 183.721 48.0226 169.783 40.5855C169.775 45.8754 169.794 51.1654 169.773 56.4553C177.326 60.5494 184.903 64.5968 192.462 68.6754C192.462 124.476 192.462 180.276 192.462 236.076C190.222 237.004 187.93 237.799 185.618 238.527C185.577 183.291 185.615 128.052 185.597 72.8137C180.325 69.9751 175.055 67.1261 169.783 64.2849C158.434 74.6724 147.115 85.091 135.75 95.4603C135.693 144.221 135.739 192.987 135.726 241.748C130.65 241.745 125.574 241.769 120.501 241.738C119.796 241.649 118.916 241.756 118.297 241.597C122.196 241.675 126.126 240.222 129.03 237.592C131.572 235.252 133.427 231.797 132.981 228.249C132.529 224.456 129.863 221.288 126.643 219.45C128.787 217.807 130.431 215.392 130.8 212.67C131.187 210.165 130.24 207.625 128.735 205.654C126.751 203.032 123.711 201.368 120.534 200.721C118.157 200.185 115.711 200.331 113.298 200.313C106.534 200.305 99.7703 200.323 93.0064 200.302C92.9729 214.118 93.0039 227.934 92.991 241.751C91.4245 241.751 89.8581 241.753 88.2942 241.751C80.0671 234.038 71.7832 226.385 63.5871 218.641C71.4994 212.553 79.4168 206.473 87.2748 200.32C83.4942 200.313 79.711 200.297 75.9303 200.326C69.5432 205.267 63.1277 210.17 56.7252 215.09C56.72 210.165 56.7226 205.239 56.7226 200.313C52.8335 200.31 48.9419 200.313 45.0529 200.313C45.0632 214.118 45.0323 227.924 45.0684 241.73C39.0787 241.782 33.0864 241.732 27.0942 241.756C26.3948 241.764 25.6955 241.725 25.0013 241.662C28.5368 240.976 31.9794 239.346 34.5419 236.762C36.6787 234.62 37.8761 231.493 37.3729 228.46C37.0219 225.483 35.0116 222.969 32.5497 221.412C28.3923 218.738 23.471 217.765 18.9368 215.954C17.5432 215.376 16.1239 214.701 15.1071 213.546C13.5045 211.781 13.6903 208.727 15.4503 207.139C16.5755 206.107 18.0981 205.654 19.5768 205.462C21.4839 205.231 23.5226 205.262 25.2723 206.159C26.6039 206.816 27.68 208.051 27.9897 209.533C28.1781 210.549 28.2477 211.586 28.3974 212.611C30.8129 211.813 33.2206 210.989 35.6439 210.211C35.3419 207.487 33.9381 204.914 31.711 203.315C27.8064 200.448 22.7897 199.772 18.08 199.769C13.2361 199.863 8.07742 200.962 4.37419 204.308C0.603871 207.672 -0.356129 214.173 3.05032 218.121C5.86839 221.373 10.0387 222.897 13.9561 224.337C16.4465 225.132 18.9187 225.99 21.329 227.012C22.6426 227.576 23.9174 228.348 24.8155 229.492C25.9174 230.89 25.8994 233.063 24.7355 234.42C23.4735 235.899 21.4994 236.476 19.6465 236.721C17.6258 237.038 15.5665 236.689 13.6361 236.076C11.7445 235.424 9.93806 234.163 9.11742 232.27C8.43355 230.758 8.72 229.063 8.66323 227.459C5.7729 228.343 2.88774 229.234 0 230.126V75.1767C0.232258 65.686 2.16516 56.2317 5.79871 47.4663C11.8555 32.7325 22.6013 20.0211 36.0413 11.5988C47.6284 4.27873 61.2077 0.24695 74.8774 0Z" fill="white"/>
<path d="M104.591 205.855C106.454 205.79 108.323 205.844 110.188 205.826C111.476 205.852 112.803 205.709 114.052 206.112C115.923 206.663 117.587 208.114 118.165 210.024C118.619 211.433 118.31 213.024 117.489 214.235C116.348 215.969 114.307 217.012 112.255 217.032C109.701 217.035 107.146 217.048 104.594 217.025C104.604 213.3 104.612 209.577 104.591 205.855Z" fill="white"/>
<path d="M104.599 222.556C107.582 222.556 110.57 222.525 113.554 222.572C115.631 222.923 117.732 223.796 119.084 225.486C120.421 227.074 120.95 229.38 120.188 231.35C119.115 234.282 116.036 236.128 113.001 236.175C110.204 236.193 107.404 236.172 104.604 236.185C104.594 231.641 104.609 227.1 104.599 222.556Z" fill="white"/>
<path d="M56.7226 225.402C62.511 230.853 68.3561 236.245 74.0981 241.74C68.3071 241.763 62.5136 241.745 56.7226 241.75C56.7226 236.302 56.72 230.851 56.7226 225.402Z" fill="white"/>
<path d="M0 230.482C0.0825806 232.819 1.01935 235.086 2.53677 236.845C4.67871 239.331 7.71097 240.981 10.8903 241.667C7.26452 241.855 3.62839 241.701 0 241.751V230.482Z" fill="white"/>
<path d="M7.46064 256.516C11.8813 252.926 17.6361 251.465 23.2258 251.26C28.9523 251.023 34.9342 252.026 39.8168 255.203C42.0026 256.586 43.7316 258.585 44.9884 260.844C43.1974 262.219 41.3832 263.563 39.5742 264.912C38.6968 263.36 38.1135 261.577 36.7613 260.353C34.8155 258.549 32.2942 257.452 29.7135 256.958C26.2813 256.303 22.6529 257.142 19.7394 259.045C15.3677 261.868 12.4284 266.908 12.3329 272.165C12.2787 276.048 13.3006 280.038 15.6465 283.171C17.9432 286.316 21.6697 288.266 25.5252 288.5C28.351 288.812 31.1045 287.79 33.5665 286.488C33.5613 282.328 33.5664 278.167 33.5639 274.005C31.2387 274.005 28.9135 274.008 26.5884 274.005C26.5858 272.167 26.5858 270.329 26.5884 268.492C32.7819 268.492 38.9755 268.492 45.1716 268.492C45.1664 274.655 45.1845 280.818 45.1639 286.982C40.2606 291.65 33.3961 293.639 26.7897 294H24.5935C20.2348 293.816 15.8581 292.947 11.9019 291.05C8.24 289.311 4.94968 286.631 2.83097 283.124C1.03484 280.215 0.167742 276.807 0 273.407V271.671C0.247742 265.871 2.90839 260.142 7.46064 256.516Z" fill="white"/>
<path d="M115.12 252.034C119.827 250.963 124.766 250.96 129.492 251.93C133.43 252.767 137.223 254.527 140.194 257.298C145.404 262.104 147.897 269.742 146.395 276.716C145.324 281.928 142.095 286.584 137.745 289.568C133.541 292.51 128.403 293.841 123.326 294H121.592C114.279 293.821 106.715 290.922 102.088 285.027C96.8697 278.494 96.4826 268.629 100.996 261.618C104.145 256.638 109.461 253.321 115.12 252.034ZM119.866 257.002C117.61 257.467 115.523 258.652 113.928 260.321C111.832 262.497 110.526 265.349 109.905 268.291C108.939 272.801 109.613 277.652 111.804 281.707C113.037 283.976 114.821 286.001 117.105 287.236C120.235 288.952 124.201 288.983 127.363 287.324C130.64 285.635 133.001 282.44 134.044 278.923C135.301 275.718 135.406 272.149 134.821 268.785C134.111 264.964 132.276 261.182 129.097 258.852C126.483 256.903 123.019 256.334 119.866 257.002Z" fill="white"/>
<path d="M53 293.42C53.0516 279.614 52.9923 265.808 53.031 252C59.4387 252.021 65.849 251.997 72.2594 252.013C76.6284 252.088 81.0852 252.993 84.8839 255.247C87.3768 256.734 89.6065 258.917 90.5639 261.73C91.6529 264.938 90.8013 268.665 88.5742 271.176C86.2568 273.833 82.9355 275.32 79.6297 276.302C84.5561 282.045 89.5677 287.717 94.5071 293.451C89.9548 293.446 85.4 293.462 80.8477 293.441C76.3755 288.221 71.8774 283.022 67.3871 277.818C66.4606 277.839 65.5239 277.753 64.6052 277.911C64.6568 283.09 64.6155 288.27 64.6258 293.451C60.7523 293.43 56.8735 293.49 53 293.42ZM64.6361 272.312C67.7355 272.317 70.9097 272.203 73.8594 271.148C75.5523 270.532 77.2065 269.484 78.071 267.839C79.0336 265.98 79.0181 263.599 77.8903 261.816C76.6155 259.746 74.3497 258.501 72.0529 257.937C69.6348 257.306 67.1213 257.594 64.6542 257.508C64.5974 262.442 64.6361 267.378 64.6361 272.312Z" fill="white"/>
<path d="M154.046 251.772C157.935 251.769 161.825 251.769 165.714 251.772C165.716 262.039 165.714 272.307 165.714 282.575C165.675 284.522 167.128 286.105 168.666 287.083C170.986 288.567 173.959 288.954 176.57 288.084C178.508 287.449 180.397 286.23 181.329 284.348C181.822 283.397 181.706 282.297 181.714 281.265C181.711 271.434 181.716 261.603 181.711 251.772C185.582 251.766 189.453 251.769 193.321 251.772C193.324 260.994 193.319 270.22 193.324 279.446C193.357 281.25 193.094 283.072 192.415 284.751C191.381 287.387 189.365 289.557 186.952 290.982C183.259 293.173 178.903 293.857 174.681 294H172.679C167.572 293.841 162.093 292.882 158.134 289.373C155.541 287.096 154.077 283.659 154.052 280.21C154.039 270.729 154.049 261.249 154.046 251.772Z" fill="white"/>
<path d="M201.984 251.771C207.342 251.769 212.702 251.769 218.059 251.769C223.394 251.6 228.981 252.138 233.68 254.904C236.939 256.765 239.77 259.981 240 263.898V265.086C239.832 267.373 238.903 269.599 237.308 271.247C235.267 273.399 232.521 274.704 229.744 275.601C224.534 277.259 219.024 277.563 213.597 277.615C213.6 282.806 213.572 288 213.61 293.191C209.734 293.238 205.861 293.199 201.984 293.212C201.984 279.399 201.984 265.585 201.984 251.771ZM213.595 257.282C213.582 262.203 213.613 267.121 213.579 272.042C216.031 272.12 218.506 271.987 220.908 271.468C222.756 271.039 224.632 270.347 226.008 268.983C227.951 267.087 228.292 263.797 226.823 261.519C225.621 259.611 223.569 258.413 221.45 257.81C218.898 257.051 216.214 257.337 213.595 257.282Z" fill="white"/>
</g>
<defs>
<clipPath id="clip0_2318_18">
<rect width="240" height="294" fill="white"/>
</clipPath>
</defs>
</svg>
