<svg width="62" height="76" viewBox="0 0 62 76" fill="none" xmlns="http://www.w3.org/2000/svg">
<g id="skb1 1" clip-path="url(#clip0_2539_116)">
<g id="#fefefeff">
<path id="Vector" d="M19.3433 0H62V40.2625C59.5553 38.9374 57.1013 37.6304 54.658 36.3026C54.6647 32.6027 54.6593 28.9028 54.6613 25.203C54.6527 22.2302 54.678 19.2567 54.6487 16.2852C51.044 14.3715 47.4613 12.414 43.8607 10.4915C43.8587 11.859 43.8633 13.2264 43.858 14.5939C45.8093 15.6522 47.7667 16.6985 49.7193 17.7528C49.7193 32.1774 49.7193 46.6019 49.7193 61.0265C49.1407 61.2663 48.5487 61.472 47.9513 61.6601C47.9407 47.3814 47.9507 33.102 47.946 18.8226C46.584 18.0888 45.2227 17.3523 43.8607 16.6179C40.9287 19.3031 38.0047 21.9963 35.0687 24.6768C35.054 37.2817 35.066 49.8878 35.0627 62.4927C33.7513 62.492 32.44 62.4981 31.1293 62.49C30.9473 62.4672 30.72 62.4947 30.56 62.4537C31.5673 62.4739 32.5827 62.0982 33.3327 61.4182C33.9893 60.8134 34.4687 59.9204 34.3533 59.0031C34.2367 58.0227 33.548 57.2036 32.716 56.7285C33.27 56.3038 33.6947 55.6796 33.79 54.976C33.89 54.3282 33.6453 53.6717 33.2567 53.1624C32.744 52.4843 31.9587 52.0543 31.138 51.887C30.524 51.7485 29.892 51.7862 29.2687 51.7815C27.5213 51.7794 25.774 51.7842 24.0267 51.7788C24.018 55.3503 24.026 58.9218 24.0227 62.4934C23.618 62.4934 23.2133 62.494 22.8093 62.4934C20.684 60.4996 18.544 58.5213 16.4267 56.5195C18.4707 54.9458 20.516 53.374 22.546 51.7835C21.5693 51.7815 20.592 51.7774 19.6153 51.7848C17.9653 53.0622 16.308 54.3296 14.654 55.6016C14.6527 54.3282 14.6533 53.0549 14.6533 51.7815C13.6487 51.7808 12.6433 51.7815 11.6387 51.7815C11.6413 55.3503 11.6333 58.9191 11.6427 62.488C10.0953 62.5014 8.54733 62.4887 6.99933 62.4947C6.81867 62.4967 6.638 62.4866 6.45867 62.4705C7.372 62.2931 8.26133 61.8718 8.92333 61.2038C9.47533 60.6501 9.78467 59.8418 9.65467 59.0576C9.564 58.2882 9.04467 57.6384 8.40867 57.2359C7.33467 56.5444 6.06333 56.2931 4.892 55.8247C4.532 55.6755 4.16533 55.5008 3.90267 55.2025C3.48867 54.7462 3.53667 53.9566 3.99133 53.5461C4.282 53.2793 4.67533 53.1624 5.05733 53.1126C5.55 53.0528 6.07667 53.0609 6.52867 53.2927C6.87267 53.4627 7.15067 53.7819 7.23067 54.1649C7.27933 54.4277 7.29733 54.6958 7.336 54.9606C7.96 54.7543 8.582 54.5413 9.208 54.3403C9.13 53.6361 8.76733 52.9709 8.192 52.5576C7.18333 51.8164 5.88733 51.6417 4.67067 51.641C3.41933 51.6652 2.08667 51.9495 1.13 52.8143C0.156 53.6838 -0.092 55.3644 0.788 56.3851C1.516 57.2258 2.59333 57.6196 3.60533 57.9918C4.24867 58.1974 4.88733 58.4192 5.51 58.6833C5.84933 58.8291 6.17867 59.0287 6.41067 59.3243C6.69533 59.6859 6.69067 60.2476 6.39 60.5984C6.064 60.9808 5.554 61.1299 5.07533 61.1931C4.55333 61.2751 4.02133 61.185 3.52267 61.0265C3.034 60.8578 2.56733 60.5319 2.35533 60.0427C2.17867 59.6516 2.25267 59.2135 2.238 58.7989C1.49133 59.0273 0.746 59.2578 0 59.4883V19.4334C0.06 16.9801 0.559333 14.5361 1.498 12.2702C3.06267 8.46147 5.83867 5.17553 9.31067 2.99834C12.304 1.10607 15.812 0.0638373 19.3433 0Z" fill="white"/>
<path id="Vector_2" d="M27.0193 53.2141C27.5007 53.1973 27.9833 53.2114 28.4653 53.2067C28.798 53.2134 29.1407 53.1765 29.4633 53.2806C29.9467 53.4231 30.3767 53.798 30.526 54.2919C30.6433 54.6561 30.5633 55.0674 30.3513 55.3805C30.0567 55.8287 29.5293 56.0982 28.9993 56.1036C28.3393 56.1042 27.6793 56.1076 27.02 56.1015C27.0227 55.1386 27.0247 54.1763 27.0193 53.2141Z" fill="white"/>
<path id="Vector_3" d="M27.0214 57.5316C27.792 57.5316 28.564 57.5235 29.3347 57.5356C29.8714 57.6263 30.414 57.8521 30.7634 58.2889C31.1087 58.6995 31.2454 59.2955 31.0487 59.8048C30.7714 60.5628 29.976 61.0399 29.192 61.052C28.4694 61.0567 27.746 61.0514 27.0227 61.0547C27.02 59.8801 27.024 58.7062 27.0214 57.5316Z" fill="white"/>
<path id="Vector_4" d="M14.6533 58.2673C16.1486 59.6765 17.6586 61.0701 19.142 62.4907C17.646 62.4967 16.1493 62.492 14.6533 62.4934C14.6533 61.0849 14.6526 59.6758 14.6533 58.2673Z" fill="white"/>
<path id="Vector_5" d="M0 59.5803C0.0213333 60.1844 0.263333 60.7704 0.655333 61.2253C1.20867 61.8677 1.992 62.2944 2.81333 62.4718C1.87667 62.5202 0.937333 62.4806 0 62.4933V59.5803Z" fill="white"/>
<path id="Vector_6" d="M1.92733 66.3101C3.06933 65.3822 4.556 65.0045 6 64.9514C7.47933 64.8903 9.02467 65.1497 10.286 65.9708C10.8507 66.3283 11.2973 66.845 11.622 67.429C11.1593 67.7845 10.6907 68.1319 10.2233 68.4806C9.99667 68.0794 9.846 67.6185 9.49667 67.302C8.994 66.8356 8.34267 66.5521 7.676 66.4244C6.78933 66.255 5.852 66.4721 5.09933 66.964C3.97 67.6937 3.21067 68.9967 3.186 70.3554C3.172 71.3593 3.436 72.3908 4.042 73.2005C4.63533 74.0136 5.598 74.5176 6.594 74.5781C7.324 74.6587 8.03533 74.3946 8.67133 74.058C8.67 72.9828 8.67133 71.907 8.67067 70.8312C8.07 70.8312 7.46933 70.8318 6.86867 70.8312C6.868 70.3561 6.868 69.881 6.86867 69.4059C8.46867 69.4059 10.0687 69.4059 11.6693 69.4059C11.668 70.9992 11.6727 72.5924 11.6673 74.1857C10.4007 75.3925 8.62733 75.9066 6.92067 76H6.35333C5.22733 75.9523 4.09667 75.7278 3.07467 75.2373C2.12867 74.7877 1.27867 74.0949 0.731333 73.1885C0.267333 72.4365 0.0433333 71.5556 0 70.6766V70.2277C0.064 68.7286 0.751333 67.2475 1.92733 66.3101Z" fill="white"/>
<path id="Vector_7" d="M29.7393 65.1517C30.9553 64.8748 32.2313 64.8742 33.452 65.1248C34.4693 65.3412 35.4493 65.7961 36.2166 66.5124C37.5626 67.7549 38.2066 69.7292 37.8186 71.5321C37.542 72.8794 36.708 74.0829 35.584 74.8543C34.498 75.615 33.1706 75.959 31.8593 76H31.4113C29.522 75.9536 27.568 75.2044 26.3726 73.6804C25.0246 71.9917 24.9246 69.4416 26.0906 67.6293C26.904 66.3418 28.2773 65.4843 29.7393 65.1517ZM30.9653 66.4358C30.3826 66.5561 29.8433 66.8625 29.4313 67.2939C28.89 67.8564 28.5526 68.5935 28.392 69.3542C28.1426 70.5201 28.3166 71.774 28.8826 72.8222C29.2013 73.4089 29.662 73.9323 30.252 74.2515C31.0606 74.695 32.0853 74.7031 32.902 74.2744C33.7486 73.8376 34.3586 73.0117 34.628 72.1026C34.9526 71.274 34.98 70.3514 34.8286 69.4819C34.6453 68.4941 34.1713 67.5164 33.35 66.9143C32.6746 66.4103 31.78 66.2631 30.9653 66.4358Z" fill="white"/>
<path id="Vector_8" d="M13.6227 75.7884C13.636 72.2195 13.6207 68.6507 13.6307 65.0812C15.286 65.0866 16.942 65.0805 18.598 65.0845C19.7267 65.104 20.878 65.3379 21.8594 65.9205C22.5034 66.3048 23.0793 66.8693 23.3267 67.5964C23.608 68.4256 23.388 69.3892 22.8127 70.0383C22.214 70.7251 21.356 71.1094 20.502 71.3634C21.7747 72.8478 23.0693 74.3141 24.3453 75.7964C23.1693 75.7951 21.9927 75.7991 20.8167 75.7938C19.6613 74.4444 18.4993 73.1005 17.3393 71.7552C17.1 71.7606 16.858 71.7384 16.6207 71.7794C16.634 73.118 16.6233 74.4572 16.626 75.7964C15.6253 75.7911 14.6233 75.8065 13.6227 75.7884ZM16.6287 70.332C17.4293 70.3333 18.2493 70.3037 19.0113 70.0309C19.4487 69.8717 19.876 69.6009 20.0993 69.1755C20.348 68.695 20.344 68.0795 20.0527 67.6185C19.7233 67.0837 19.138 66.7618 18.5447 66.616C17.92 66.4527 17.2707 66.5273 16.6333 66.5051C16.6187 67.7805 16.6287 69.0566 16.6287 70.332Z" fill="white"/>
<path id="Vector_9" d="M39.7953 65.0838C40.8 65.0831 41.8046 65.0831 42.8093 65.0838C42.81 67.7381 42.8093 70.3924 42.8093 73.0467C42.7993 73.55 43.1746 73.9592 43.572 74.2119C44.1713 74.5955 44.9393 74.6957 45.614 74.4706C46.1146 74.3066 46.6026 73.9914 46.8433 73.5049C46.9706 73.259 46.9406 72.9747 46.9426 72.708C46.942 70.1666 46.9433 67.6252 46.942 65.0838C47.942 65.0824 48.942 65.0831 49.9413 65.0838C49.942 67.4679 49.9406 69.8528 49.942 72.2376C49.9506 72.7039 49.8826 73.175 49.7073 73.6091C49.44 74.2905 48.9193 74.8516 48.296 75.2198C47.342 75.7863 46.2166 75.963 45.126 76H44.6086C43.2893 75.959 41.874 75.711 40.8513 74.8039C40.1813 74.2152 39.8033 73.3269 39.7966 72.4352C39.7933 69.9845 39.796 67.5338 39.7953 65.0838Z" fill="white"/>
<path id="Vector_10" d="M52.1793 65.0839C53.5633 65.0832 54.948 65.0832 56.332 65.0832C57.71 65.0395 59.1533 65.1786 60.3673 65.8936C61.2093 66.3747 61.9407 67.206 62 68.2186V68.5257C61.9567 69.117 61.7167 69.6922 61.3047 70.1183C60.7773 70.6747 60.068 71.012 59.3507 71.2438C58.0047 71.6725 56.5813 71.7512 55.1793 71.7646C55.18 73.1065 55.1727 74.4491 55.1827 75.7911C54.1813 75.8032 53.1807 75.7931 52.1793 75.7964C52.1793 72.2256 52.1793 68.6547 52.1793 65.0839ZM55.1787 66.5084C55.1753 67.7805 55.1833 69.0519 55.1747 70.3239C55.808 70.3441 56.4473 70.3098 57.068 70.1754C57.5453 70.0645 58.03 69.8858 58.3853 69.533C58.8873 69.0431 58.9753 68.1924 58.596 67.6038C58.2853 67.1105 57.7553 66.8008 57.208 66.6449C56.5487 66.4486 55.8553 66.5226 55.1787 66.5084Z" fill="white"/>
</g>
</g>
<defs>
<clipPath id="clip0_2539_116">
<rect width="62" height="76" fill="white"/>
</clipPath>
</defs>
</svg>
